<svg xmlns="http://www.w3.org/2000/svg" width="64" height="64" viewBox="0 0 700 700"><defs><style>.a{fill:#ef337b;}.b{fill:#a0f;}.c{fill:#00ccdb;}.d{fill:#ffc107;}.e{fill:#00c853;}</style></defs><title>logoArtboard 1</title><path class="a" d="M159.82,284.79a8.41,8.41,0,0,0,8.13-8.26c.44-17.83,7-56.69,54.66-62.85,49.21-6.35,81.84,36.31,93.36,54.46a8.18,8.18,0,0,0,11.41,2.51c4.37-2.92,18.59-6,29.11-5.4,16.24.87,31.7,10.74,40.53,23.82,3.74,5.54,6.52,9.55,6.48,15.23-.15,19.73-33.36,33.77-45.18,35-12.23,1.29-23.74-5.43-32.62-5.51a28.76,28.76,0,0,0-16.79,5.31,8.29,8.29,0,0,0-1.87,1.89c-3,4.12-16.36,20.62-40.62,21-22.09.34-44.52-21.85-52.72-30.88a8.11,8.11,0,0,0-8-2.44c-7.9,2-24.46,5.84-41.09,6.64-18.9.91-37.9-3.48-44.2-6.58C107.58,322.43,129.31,285.73,159.82,284.79Z"/><path class="b" d="M261.89,447.8a2.52,2.52,0,0,1-2.45,3.59l-.91-.08c-3.87-.28-76.71-5.56-97.72-26-21.52-21-36.29-63.3-36.29-63.3s-5.74-16.76,19.62-14.19a83.89,83.89,0,0,0,26.34,2.93c19.34-1,22.85-6.46,34.16-3.75,15.35,3.68,13.07,15.65,31.76,21.69,9.78,3.16,18,2.35,21.73,8.83,2.06,3.63,1.7,7.83,1.07,10.82-.9,4.39-3.49,8-5.1,10.58a27.58,27.58,0,0,0-3,6.54,30.2,30.2,0,0,0-1.21,8A48.85,48.85,0,0,0,253.22,432a56.9,56.9,0,0,0,3.51,8A53.44,53.44,0,0,0,261.89,447.8Z"/><path class="c" d="M522.69,541.41a1.4,1.4,0,0,1-1.4,2.39,250.47,250.47,0,0,1-86-64.64,87.62,87.62,0,0,1-35.51.54,89.81,89.81,0,0,1-41.9-20.65s-69,22.33-83.47-20c-3.36-9.81-9.68-25.69-3.95-42.93a51.71,51.71,0,0,1,6.7-13.31c4.1-5.88,9.85-5.1,16.2-7.64,14.55-5.81,13.9-15.76,25.67-21.94s20.8-.59,34.65-.53c12.49.06,30.33-4.5,52.48-26.16a12.5,12.5,0,0,1,9.16-3.56,54.86,54.86,0,0,1,16.93,3.2c35.29,12.75,46,58.9,48.79,75.47a3.46,3.46,0,0,0,5.44,2.32c10-7.26,34.3-22.25,50.6-11.48,21,13.87-33.79,57.27-33.79,57.27l-26.88,17.08a212.88,212.88,0,0,0,46.24,74.58Z"/><path class="d" d="M507.28,234.47c-10.54-12.41-23-18.06-30.18-21.25A99.71,99.71,0,0,0,443.89,205s-44.6-5.83-66.53.19a5.22,5.22,0,0,1-4.93-1.21c-7.8-7.19-29-24.1-60.62-25.35-29.55-1.17-54.29,10.6-64.73,17.18a2.17,2.17,0,0,0,.7,3.94,151.88,151.88,0,0,1,29.59,9.87c25.12,11.69,39.77,31,47,42.63a6,6,0,0,0,6.89,2.66c13.2-4,53.14-11.92,79.18,28.64,0,0,7.28,20.63,15.4,20.16,7.13-.41,45.1-8.52,45.1-8.52,20.8-4.63,33.76-12.11,40.71-16.92,5.08-3.52,9.21-7.16,10.16-12.52.85-4.8-1.18-9-4.81-16.18A70.63,70.63,0,0,0,507.28,234.47Z"/><path class="e" d="M443.74,311c23.42-2.55,76-10.38,86.92-30a2.33,2.33,0,0,1,3.1-1c6.26,3.18,24.07,14.77,26.58,44.69,2.09,24.85-8.48,38.15-15.15,55.07a2.32,2.32,0,0,1-4,.62c-4.2-4.92-15.77-10.39-46.18,7.85-7.95,4.77.2-51.25-51.92-72.62A2.44,2.44,0,0,1,443.74,311Z"/></svg>