<svg xmlns="http://www.w3.org/2000/svg" width="24" height="24" viewBox="0 0 700 579.94"><defs><style>.a{fill:#fff;}</style></defs><title>white_logoArtboard 2</title><path class="a" d="M69,170.85a13.21,13.21,0,0,0,12.78-13c.69-28,10.93-89.09,85.9-98.77,77.34-10,128.63,57.06,146.73,85.6a12.85,12.85,0,0,0,17.94,4c6.86-4.59,29.21-9.37,45.76-8.49,25.53,1.36,49.83,16.89,63.7,37.43,5.88,8.7,10.25,15,10.18,23.94-.23,31-52.43,53.07-71,55-19.22,2-37.31-8.54-51.26-8.65a45.2,45.2,0,0,0-26.38,8.34,13,13,0,0,0-2.93,3c-4.67,6.47-25.72,32.4-63.84,33-34.71.53-70-34.34-82.85-48.53a12.75,12.75,0,0,0-12.65-3.83c-12.42,3.21-38.45,9.18-64.57,10.43C46.78,251.7,16.91,244.81,7,239.93-13.13,230,21,172.33,69,170.85Z"/><path class="a" d="M229.4,427a4,4,0,0,1-3.85,5.64l-1.43-.13c-6.08-.43-120.57-8.75-153.58-40.9-33.82-32.94-57-99.49-57-99.49s-9-26.35,30.84-22.3a131.84,131.84,0,0,0,41.4,4.6c30.39-1.53,35.92-10.15,53.69-5.89,24.12,5.78,20.55,24.6,49.92,34.09,15.37,5,28.37,3.69,34.15,13.88,3.24,5.71,2.67,12.3,1.68,17-1.42,6.9-5.48,12.5-8,16.63a43.34,43.34,0,0,0-4.74,10.28,47.47,47.47,0,0,0-1.9,12.52c-.42,12.77,3,22.82,5.26,29.15a89.43,89.43,0,0,0,5.52,12.6A84,84,0,0,0,229.4,427Z"/><path class="a" d="M639.28,574.17a2.19,2.19,0,0,1-2.2,3.76A393.65,393.65,0,0,1,502,476.33a137.71,137.71,0,0,1-55.81.85,141.15,141.15,0,0,1-65.85-32.45s-108.4,35.1-131.19-31.46c-5.28-15.42-15.21-40.38-6.21-67.47a81.27,81.27,0,0,1,10.52-20.92c6.45-9.24,15.48-8,25.46-12,22.87-9.13,21.84-24.76,40.34-34.48,18.68-9.81,32.69-.94,54.45-.83,19.64.1,47.66-7.08,82.48-41.12a19.65,19.65,0,0,1,14.4-5.6,86.23,86.23,0,0,1,26.6,5c55.46,20,72.36,92.56,76.68,118.61a5.44,5.44,0,0,0,8.55,3.65c15.79-11.4,53.91-35,79.53-18,33,21.8-53.1,90-53.1,90l-42.25,26.84a334.57,334.57,0,0,0,72.68,117.22Z"/><path class="a" d="M615.08,91.76C598.52,72.26,579,63.38,567.64,58.36a156.71,156.71,0,0,0-52.19-12.91s-70.1-9.17-104.57.29a8.21,8.21,0,0,1-7.75-1.9C390.87,32.54,357.53,6,307.85,4c-46.45-1.83-85.32,16.66-101.73,27a3.41,3.41,0,0,0,1.1,6.19,238.7,238.7,0,0,1,46.5,15.51c39.47,18.38,62.5,48.66,73.87,67a9.48,9.48,0,0,0,10.82,4.18c20.75-6.31,83.52-18.74,124.44,45,0,0,11.45,32.43,24.2,31.69,11.2-.65,70.88-13.39,70.88-13.39,32.68-7.27,53.06-19,64-26.59,8-5.53,14.47-11.26,16-19.68,1.34-7.54-1.86-14.11-7.56-25.44A111,111,0,0,0,615.08,91.76Z"/><path class="a" d="M515.21,212.1c36.81-4,119.41-16.32,136.6-47.12a3.66,3.66,0,0,1,4.87-1.51c9.84,5,37.83,23.21,41.78,70.24,3.28,39.06-13.32,60-23.81,86.56a3.65,3.65,0,0,1-6.23,1c-6.6-7.74-24.78-16.33-72.58,12.34-12.49,7.49.32-80.55-81.59-114.14A3.84,3.84,0,0,1,515.21,212.1Z"/></svg>